<svg xmlns="http://www.w3.org/2000/svg" viewBox="0 0 32 32">
  <defs>
    <linearGradient id="grad" x1="0%" y1="0%" x2="100%" y2="100%">
      <stop offset="0%" style="stop-color:#6366f1;stop-opacity:1" />
      <stop offset="100%" style="stop-color:#8b5cf6;stop-opacity:1" />
    </linearGradient>
  </defs>
  <rect width="32" height="32" rx="6" fill="url(#grad)"/>
  <path d="M14 8C10.686 8 8 10.686 8 14C8 17.314 10.686 20 14 20C15.5 20 16.866 19.422 17.906 18.469L22 22.5L23.5 21L19.406 16.969C20.383 15.914 21 14.531 21 13C21 9.686 18.314 7 15 7H14V8ZM14 10C16.206 10 18 11.794 18 14C18 16.206 16.206 18 14 18C11.794 18 10 16.206 10 14C10 11.794 11.794 10 14 10Z" fill="white"/>
</svg>